<svg width="24" height="25" viewBox="0 0 24 25" fill="none" xmlns="http://www.w3.org/2000/svg">
<path fill-rule="evenodd" clip-rule="evenodd" d="M12 2.5C12.5523 2.5 13 2.94772 13 3.5V13.0858L16.2929 9.79289C16.6834 9.40237 17.3166 9.40237 17.7071 9.79289C18.0976 10.1834 18.0976 10.8166 17.7071 11.2071L12.7071 16.2071C12.3166 16.5976 11.6834 16.5976 11.2929 16.2071L6.29289 11.2071C5.90237 10.8166 5.90237 10.1834 6.29289 9.79289C6.68342 9.40237 7.31658 9.40237 7.70711 9.79289L11 13.0858V3.5C11 2.94772 11.4477 2.5 12 2.5ZM3 14.5C3.55229 14.5 4 14.9477 4 15.5V16.7C4 17.5566 4.00078 18.1389 4.03755 18.589C4.07337 19.0274 4.1383 19.2516 4.21799 19.408C4.40973 19.7843 4.7157 20.0903 5.09202 20.282C5.24842 20.3617 5.47262 20.4266 5.91104 20.4624C6.36113 20.4992 6.94342 20.5 7.8 20.5H16.2C17.0566 20.5 17.6389 20.4992 18.089 20.4624C18.5274 20.4266 18.7516 20.3617 18.908 20.282C19.2843 20.0903 19.5903 19.7843 19.782 19.408C19.8617 19.2516 19.9266 19.0274 19.9624 18.589C19.9992 18.1389 20 17.5566 20 16.7V15.5C20 14.9477 20.4477 14.5 21 14.5C21.5523 14.5 22 14.9477 22 15.5V16.7413C22 17.5463 22 18.2106 21.9558 18.7518C21.9099 19.3139 21.8113 19.8306 21.564 20.316C21.1805 21.0686 20.5686 21.6805 19.816 22.064C19.3306 22.3113 18.8139 22.4099 18.2518 22.4558C17.7106 22.5 17.0463 22.5 16.2413 22.5H7.75868C6.95372 22.5 6.28936 22.5 5.74817 22.4558C5.18608 22.4099 4.66937 22.3113 4.18404 22.064C3.43139 21.6805 2.81947 21.0686 2.43597 20.316C2.18868 19.8306 2.09012 19.3139 2.04419 18.7518C1.99998 18.2106 1.99999 17.5463 2 16.7413L2 15.5C2 14.9477 2.44772 14.5 3 14.5Z" fill="white"/>
</svg>
