<svg width="185" height="72" viewBox="0 0 185 72" fill="none" xmlns="http://www.w3.org/2000/svg">
<path d="M155.767 44.7553V12.4243H163.963V25.1282H176.804V12.4243H185V44.7553H176.804V31.7377H163.963V44.7553H155.767Z" fill="white"/>
<path d="M135.244 44.7553V19.0339H126.356V12.4243H152.306V19.0339H143.44V44.7553H135.244Z" fill="white"/>
<path d="M110.924 45.3378C108.438 45.3378 106.271 44.9121 104.425 44.0607C102.579 43.1944 101.128 42.0293 100.071 40.5655C99.0135 39.1016 98.4254 37.4511 98.3063 35.6139L98.2839 35.2554H105.743L105.788 35.4122C105.966 36.0844 106.286 36.6893 106.748 37.2271C107.224 37.7648 107.812 38.198 108.512 38.5266C109.227 38.8402 110.031 38.9971 110.924 38.9971C111.951 38.9971 112.859 38.788 113.648 38.3697C114.438 37.9366 115.055 37.3391 115.502 36.5773C115.949 35.8155 116.172 34.9417 116.172 33.9559V33.9111C116.172 32.9252 115.949 32.0589 115.502 31.312C115.055 30.5503 114.438 29.9603 113.648 29.542C112.859 29.1238 111.951 28.9147 110.924 28.9147C110.254 28.9147 109.629 29.0118 109.048 29.2059C108.467 29.3852 107.946 29.6391 107.485 29.9677C107.142 30.2067 106.837 30.4756 106.569 30.7743C106.316 31.0731 106.1 31.3867 105.922 31.7153H98.8199L100.205 12.4243H121.889V18.765H106.659L106.033 26.9206H106.19C106.815 25.8302 107.753 24.9639 109.003 24.3216C110.269 23.6643 111.743 23.3357 113.425 23.3357C115.465 23.3357 117.266 23.7838 118.83 24.6801C120.408 25.5763 121.643 26.8086 122.537 28.3769C123.445 29.9453 123.899 31.7377 123.899 33.7542V33.799C123.899 36.0993 123.356 38.1158 122.269 39.8485C121.182 41.5812 119.663 42.933 117.713 43.9039C115.763 44.8598 113.5 45.3378 110.924 45.3378Z" fill="white"/>
<path d="M82.9641 44.7553V19.6613H82.7854L74.7458 25.0609V18.0257L82.9418 12.4243H91.1154V44.7553H82.9641Z" fill="white"/>
<path d="M178.912 62.1806C177.695 62.1806 176.639 61.9258 175.746 61.4161C174.853 60.9063 174.163 60.1838 173.678 59.2483C173.192 58.3073 172.949 57.1926 172.949 55.9043V55.8875C172.949 54.5992 173.192 53.4874 173.678 52.5519C174.169 51.6165 174.861 50.8939 175.754 50.3842C176.648 49.8745 177.7 49.6196 178.912 49.6196C180.14 49.6196 181.201 49.8745 182.094 50.3842C182.987 50.8939 183.674 51.6165 184.154 52.5519C184.64 53.4874 184.883 54.5992 184.883 55.8875V55.9043C184.883 57.1926 184.64 58.3073 184.154 59.2483C183.674 60.1838 182.987 60.9063 182.094 61.4161C181.206 61.9258 180.146 62.1806 178.912 62.1806ZM178.912 59.6264C179.503 59.6264 180.009 59.4752 180.427 59.1727C180.852 58.8646 181.178 58.4333 181.407 57.8788C181.636 57.3187 181.751 56.6605 181.751 55.9043V55.8875C181.751 55.1257 181.633 54.4676 181.399 53.9131C181.17 53.3585 180.843 52.93 180.419 52.6275C179.995 52.3251 179.492 52.1738 178.912 52.1738C178.348 52.1738 177.851 52.3251 177.421 52.6275C176.997 52.9244 176.667 53.3501 176.433 53.9047C176.204 54.4592 176.089 55.1201 176.089 55.8875V55.9043C176.089 56.6661 176.204 57.3271 176.433 57.8872C176.667 58.4417 176.997 58.8702 177.421 59.1727C177.845 59.4752 178.342 59.6264 178.912 59.6264Z" fill="white"/>
<path d="M168.376 61.962V49.8379H171.45V61.962H168.376Z" fill="white"/>
<path d="M156.166 61.962V49.8379H161.082C162.294 49.8379 163.332 50.0675 164.198 50.5269C165.063 50.9862 165.725 51.6611 166.182 52.5517C166.64 53.4368 166.869 54.5234 166.869 55.8117V55.8285C166.869 57.1168 166.64 58.2203 166.182 59.1389C165.725 60.0519 165.063 60.7521 164.198 61.2394C163.338 61.7211 162.299 61.962 161.082 61.962H156.166ZM159.24 59.475H160.672C161.336 59.475 161.897 59.3406 162.355 59.0717C162.813 58.7972 163.156 58.3911 163.385 57.8534C163.62 57.3157 163.737 56.6435 163.737 55.8369V55.8201C163.737 55.0639 163.617 54.4254 163.377 53.9045C163.137 53.3835 162.785 52.9914 162.322 52.7282C161.864 52.4593 161.314 52.3249 160.672 52.3249H159.24V59.475Z" fill="white"/>
<path d="M149.123 62.1804C148.079 62.1804 147.166 61.9928 146.385 61.6175C145.603 61.2422 144.997 60.7157 144.568 60.0379C144.138 59.3602 143.923 58.5676 143.923 57.6602V49.8379H146.996V57.3661C146.996 58.0719 147.18 58.6264 147.549 59.0297C147.917 59.4274 148.445 59.6262 149.132 59.6262C149.818 59.6262 150.343 59.4274 150.706 59.0297C151.075 58.6264 151.259 58.0719 151.259 57.3661V49.8379H154.332V57.6602C154.332 58.562 154.117 59.3546 153.687 60.0379C153.263 60.7157 152.66 61.2422 151.879 61.6175C151.103 61.9928 150.184 62.1804 149.123 62.1804Z" fill="white"/>
<path d="M136.227 61.962V52.3165H132.893V49.8379H142.625V52.3165H139.3V61.962H136.227Z" fill="white"/>
<path d="M127.249 62.1806C126.244 62.1806 125.37 62.0378 124.628 61.7521C123.891 61.4609 123.313 61.0436 122.894 60.5002C122.481 59.9569 122.249 59.2987 122.199 58.5258L122.191 58.3745H125.046L125.063 58.4585C125.119 58.7218 125.247 58.9515 125.448 59.1475C125.655 59.338 125.917 59.4892 126.236 59.6012C126.554 59.7076 126.908 59.7609 127.299 59.7609C127.707 59.7609 128.056 59.7076 128.346 59.6012C128.642 59.4892 128.871 59.338 129.033 59.1475C129.195 58.9571 129.276 58.7358 129.276 58.4838V58.4754C129.276 58.1337 129.128 57.8704 128.832 57.6856C128.536 57.4951 128.033 57.3327 127.324 57.1982L126.085 56.9546C124.89 56.7305 123.98 56.3272 123.355 55.7447C122.735 55.1566 122.425 54.3976 122.425 53.4678V53.4593C122.425 52.6808 122.632 52.0058 123.045 51.4345C123.458 50.8575 124.025 50.4122 124.745 50.0985C125.471 49.7793 126.294 49.6196 127.215 49.6196C128.226 49.6196 129.086 49.7709 129.795 50.0733C130.504 50.3702 131.051 50.7903 131.436 51.3336C131.827 51.877 132.039 52.5155 132.073 53.2493L132.081 53.4257H129.225L129.217 53.3333C129.183 53.0645 129.08 52.8348 128.907 52.6444C128.734 52.4539 128.505 52.3055 128.22 52.199C127.936 52.0926 127.609 52.0394 127.241 52.0394C126.866 52.0394 126.548 52.0926 126.286 52.199C126.023 52.3055 125.822 52.4511 125.683 52.636C125.549 52.8152 125.482 53.0196 125.482 53.2493V53.2577C125.482 53.5826 125.63 53.8402 125.926 54.0307C126.222 54.2211 126.693 54.378 127.341 54.5012L128.58 54.7365C129.865 54.9829 130.811 55.3806 131.419 55.9295C132.028 56.4785 132.332 57.2403 132.332 58.2149V58.2233C132.332 59.0299 132.131 59.7301 131.729 60.3238C131.327 60.9175 130.747 61.3768 129.987 61.7017C129.228 62.021 128.315 62.1806 127.249 62.1806Z" fill="white"/>
<path d="M117.241 62.122C116.8 62.122 116.426 61.9708 116.119 61.6683C115.818 61.3603 115.667 60.985 115.667 60.5425C115.667 60.1 115.818 59.7275 116.119 59.425C116.426 59.1169 116.8 58.9629 117.241 58.9629C117.677 58.9629 118.045 59.1169 118.347 59.425C118.654 59.7275 118.807 60.1 118.807 60.5425C118.807 60.985 118.654 61.3603 118.347 61.6683C118.045 61.9708 117.677 62.122 117.241 62.122Z" fill="white"/>
<path d="M108.121 61.962L104.294 49.8379H107.745L110.056 58.9457H110.115L112.426 49.8379H115.876L112.049 61.962H108.121Z" fill="white"/>
<path d="M94.9481 61.962V49.8379H103.231V52.3165H98.0216V54.7111H102.921V57.03H98.0216V59.4834H103.231V61.962H94.9481Z" fill="white"/>
<path d="M82.738 61.962V49.8379H87.6539C88.8654 49.8379 89.9039 50.0675 90.7693 50.5269C91.6346 50.9862 92.2962 51.6611 92.754 52.5517C93.2118 53.4368 93.4407 54.5234 93.4407 55.8117V55.8285C93.4407 57.1168 93.2118 58.2203 92.754 59.1389C92.2962 60.0519 91.6346 60.7521 90.7693 61.2394C89.9095 61.7211 88.871 61.962 87.6539 61.962H82.738ZM85.8115 59.475H87.2436C87.9079 59.475 88.469 59.3406 88.9268 59.0717C89.3847 58.7972 89.728 58.3911 89.9569 57.8534C90.1914 57.3157 90.3087 56.6435 90.3087 55.8369V55.8201C90.3087 55.0639 90.1886 54.4254 89.9485 53.9045C89.7085 53.3835 89.3567 52.9914 88.8934 52.7282C88.4355 52.4593 87.8856 52.3249 87.2436 52.3249H85.8115V59.475Z" fill="white"/>
<path fill-rule="evenodd" clip-rule="evenodd" d="M35.4252 72.0001C46.9496 72.0001 56.5147 66.4183 62.9841 57.8713C63.2338 55.1586 62.812 53.5156 62.0877 52.3503C61.3419 51.1504 60.1584 50.2582 58.4549 49.2616C57.9253 48.9517 57.3542 48.6376 56.7503 48.3055C53.5249 46.5316 49.3628 44.2425 45.565 39.3225C43.3743 36.4844 42.1534 34.1036 41.9332 32.0775C41.8192 31.0279 41.972 30.0545 42.4131 29.1907C42.85 28.3348 43.5203 27.683 44.2908 27.1868C45.786 26.2237 47.8214 25.7441 49.9027 25.4635C52.0185 25.1782 54.389 25.0756 56.66 24.9863C63.2466 24.7273 66.3712 21.8929 67.1717 20.6859C65.6959 17.7057 63.8153 14.9629 61.602 12.5298C58.9694 14.1199 54.9675 16.0133 50.8437 16.9006C46.4892 17.8376 41.5589 17.735 38.1703 14.3363C35.0027 11.1593 34.227 7.85536 34.7311 4.97551C35.0011 3.43289 35.6276 2.06779 36.367 0.951766C36.0541 0.943574 35.7401 0.939453 35.4252 0.939453C34.0395 0.939453 32.6725 1.01924 31.3283 1.17449C29.6779 6.84329 25.18 11.9225 19.8754 15.4995C14.8405 18.8947 8.86313 21.0833 3.48798 21.077C1.25259 25.7341 0 30.9552 0 36.4698C0 36.9564 0.00975575 37.4408 0.0290813 37.9227C0.718103 37.3995 1.50953 36.928 2.36037 36.6275C3.27546 36.3043 4.32955 36.1552 5.41128 36.4318C6.51146 36.7131 7.49234 37.3973 8.30166 38.4796C9.19402 39.6729 9.53789 41.2614 9.62777 42.8378C9.71948 44.4463 9.55635 46.2358 9.26665 47.9993C8.69564 51.4751 7.59907 55.0476 6.74535 57.3303C9.97556 61.79 14.2146 65.467 19.1263 68.0244C19.3729 65.7927 19.9172 63.1799 20.9243 60.9283C21.6199 59.373 22.5807 57.8897 23.9124 56.8514C25.2845 55.7816 26.9896 55.2355 28.9945 55.5036C31.0479 55.7782 32.5522 56.8567 33.5719 58.3572C34.5596 59.8104 35.0759 61.6261 35.3227 63.4492C35.7093 66.3051 35.4712 69.4656 35.0527 71.9981C35.1767 71.9994 35.3009 72.0001 35.4252 72.0001ZM50.2432 14.0934C53.6886 13.352 57.1046 11.8108 59.5218 10.4253C54.2147 5.48365 47.3949 2.15386 39.8364 1.21223C38.8951 2.14197 37.8661 3.66933 37.5506 5.47194C37.2197 7.36236 37.6368 9.7409 40.1945 12.3061C42.5312 14.6498 46.1888 14.9658 50.2432 14.0934ZM5.07389 18.1367C10.0711 9.83215 18.3608 3.74492 28.1295 1.69374C26.4445 6.01728 22.7855 10.0774 18.2782 13.1168C14.0906 15.9407 9.34132 17.7677 5.07389 18.1367ZM4.76923 54.2868C2.53324 50.425 1.00184 46.102 0.351547 41.4947L0.381005 41.5195C1.06647 40.6998 2.19128 39.7312 3.31123 39.3357C3.84834 39.1459 4.31055 39.1133 4.70413 39.214C5.07926 39.3099 5.53268 39.5618 6.01154 40.2022C6.40737 40.7316 6.69269 41.6493 6.7698 43.0017C6.84507 44.3219 6.71299 45.8835 6.44209 47.5325C6.05581 49.8839 5.40496 52.3093 4.76923 54.2868ZM32.1734 71.8524C28.5587 71.5225 25.1009 70.6479 21.8822 69.3112C22.0429 67.1099 22.5361 64.3393 23.5361 62.1035C24.1227 60.7922 24.8392 59.7655 25.6694 59.1181C26.4593 58.5023 27.4006 58.187 28.6161 58.3496C29.7832 58.5056 30.5974 59.078 31.2065 59.9743C31.8477 60.9178 32.2707 62.2447 32.4861 63.8355C32.8405 66.4533 32.5924 69.4698 32.1734 71.8524ZM26.5618 23.8676C23.1822 27.7606 20.275 33.6996 23.5389 41.043C25.6111 45.7054 30.2729 48.9876 34.189 50.5151C36.2056 51.3016 38.2833 51.771 40.2281 52.0302C41.7999 52.2396 42.6317 50.3609 41.5919 49.1603C38.6062 45.7132 35.3095 41.3488 33.2811 37.7084C30.8878 33.4129 29.8872 28.7359 29.4677 24.9655C29.3014 23.4714 27.5461 22.7338 26.5618 23.8676ZM30.7865 18.1663C31.5252 18.58 32.0205 19.374 32.0383 20.291C32.1109 24.04 32.6067 30.6124 35.7801 36.3078C38.4664 41.1291 43.6312 47.456 46.9615 50.7339C47.735 51.4953 47.8903 52.563 47.6172 53.4217C47.3374 54.3014 46.5418 55.125 45.3502 55.1604C42.1517 55.2553 37.564 54.9121 33.1514 53.191C28.7132 51.4599 23.3746 47.7251 20.9243 42.212C15.8072 30.6992 23.4021 21.9819 28.2371 18.347C29.0383 17.7446 30.025 17.7398 30.7865 18.1663ZM67.8088 24.8058C69.1153 28.4485 69.419 32.3757 69.419 36.4698C69.419 42.2334 68.008 47.6665 65.5134 52.4404C65.15 49.8769 62.6926 48.2999 59.9737 46.555C59.0732 45.9771 58.1441 45.3809 57.2528 44.7243C56.1631 43.9214 55.077 43.1932 54.0387 42.4971C51.1313 40.5477 48.599 38.8498 47.4125 36.4698C45.3931 32.4189 44.192 26.6002 51.7065 28.2152C57.718 29.5073 65.0822 26.4806 67.8088 24.8058Z" fill="white"/>
</svg>
